ffmpeg version 4.4.2-0ubuntu0.22.04.1 Copyright (c) 2000-2021 the FFmpeg developers
  built with gcc 11 (Ubuntu 11.2.0-19ubuntu1)
  configuration: --prefix=/usr --extra-version=0ubuntu0.22.04.1 --toolchain=hardened --libdir=/usr/lib/x86_64-linux-gnu --incdir=/usr/include/x86_64-linux-gnu --arch=amd64 --enable-gpl --disable-stripping --enable-gnutls --enable-ladspa --enable-libaom --enable-libass --enable-libbluray --enable-libbs2b --enable-libcaca --enable-libcdio --enable-libcodec2 --enable-libdav1d --enable-libflite --enable-libfontconfig --enable-libfreetype --enable-libfribidi --enable-libgme --enable-libgsm --enable-libjack --enable-libmp3lame --enable-libmysofa --enable-libopenjpeg --enable-libopenmpt --enable-libopus --enable-libpulse --enable-librabbitmq --enable-librubberband --enable-libshine --enable-libsnappy --enable-libsoxr --enable-libspeex --enable-libsrt --enable-libssh --enable-libtheora --enable-libtwolame --enable-libvidstab --enable-libvorbis --enable-libvpx --enable-libwebp --enable-libx265 --enable-libxml2 --enable-libxvid --enable-libzimg --enable-libzmq --enable-libzvbi --enable-lv2 --enable-omx --enable-openal --enable-opencl --enable-opengl --enable-sdl2 --enable-pocketsphinx --enable-librsvg --enable-libmfx --enable-libdc1394 --enable-libdrm --enable-libiec61883 --enable-chromaprint --enable-frei0r --enable-libx264 --enable-shared
  libavutil      56. 70.100 / 56. 70.100
  libavcodec     58.134.100 / 58.134.100
  libavformat    58. 76.100 / 58. 76.100
  libavdevice    58. 13.100 / 58. 13.100
  libavfilter     7.110.100 /  7.110.100
  libswscale      5.  9.100 /  5.  9.100
  libswresample   3.  9.100 /  3.  9.100
  libpostproc    55.  9.100 / 55.  9.100
Input #0, image2, from '/tmp/jl_Hz2dzt/proc1_%04d.png':
  Duration: 00:00:04.52, start: 0.000000, bitrate: N/A
  Stream #0:0: Video: png, rgb24(pc), 1200x600, 25 fps, 25 tbr, 25 tbn, 25 tbc
Stream mapping:
  Stream #0:0 -> #0:0 (png (native) -> h264 (libx264))
Press [q] to stop, [?] for help
[libx264 @ 0x55d8050fae80] using cpu capabilities: MMX2 SSE2Fast SSSE3 SSE4.2 AVX FMA3 BMI2 AVX2 AVX512
[libx264 @ 0x55d8050fae80] profile High, level 3.1, 4:2:0, 8-bit
[libx264 @ 0x55d8050fae80] 264 - core 163 r3060 5db6aa6 - H.264/MPEG-4 AVC codec - Copyleft 2003-2021 - http://www.videolan.org/x264.html - options: cabac=1 ref=3 deblock=1:0:0 analyse=0x3:0x113 me=hex subme=7 psy=1 psy_rd=1.00:0.00 mixed_ref=1 me_range=16 chroma_me=1 trellis=1 8x8dct=1 cqm=0 deadzone=21,11 fast_pskip=1 chroma_qp_offset=-2 threads=3 lookahead_threads=1 sliced_threads=0 nr=0 decimate=1 interlaced=0 bluray_compat=0 constrained_intra=0 bframes=3 b_pyramid=2 b_adapt=1 b_bias=0 direct=1 weightb=1 open_gop=0 weightp=2 keyint=250 keyint_min=25 scenecut=40 intra_refresh=0 rc_lookahead=40 rc=crf mbtree=1 crf=23.0 qcomp=0.60 qpmin=0 qpmax=69 qpstep=4 ip_ratio=1.40 aq=1:1.00
Output #0, mp4, to 'vorticity_proc1.mp4':
  Metadata:
    encoder         : Lavf58.76.100
  Stream #0:0: Video: h264 (avc1 / 0x31637661), yuv420p(tv, progressive), 1200x600, q=2-31, 25 fps, 12800 tbn
    Metadata:
      encoder         : Lavc58.134.100 libx264
    Side data:
      cpb: bitrate max/min/avg: 0/0/0 buffer size: 0 vbv_delay: N/A
frame=    3 fps=0.0 q=0.0 size=       0kB time=00:00:00.00 bitrate=N/A speed=   0x    frame=   48 fps=0.0 q=28.0 size=       0kB time=-00:00:00.07 bitrate=N/A speed=N/A    frame=   63 fps= 58 q=28.0 size=       0kB time=00:00:00.52 bitrate=   0.7kbits/s speed=0.483x    frame=   80 fps= 50 q=28.0 size=       0kB time=00:00:01.20 bitrate=   0.3kbits/s speed=0.751x    frame=   98 fps= 45 q=28.0 size=       0kB time=00:00:01.92 bitrate=   0.2kbits/s speed=0.882x    frame=  118 fps= 43 q=28.0 size=       0kB time=00:00:02.72 bitrate=   0.1kbits/s speed=   1x    frame=  133 fps= 41 q=28.0 size=     256kB time=00:00:03.32 bitrate= 631.8kbits/s speed=1.03x    frame=  153 fps= 41 q=28.0 size=     256kB time=00:00:04.12 bitrate= 509.1kbits/s speed=1.09x    frame=  175 fps= 40 q=28.0 size=     256kB time=00:00:05.00 bitrate= 419.5kbits/s speed=1.15x    frame=  198 fps= 40 q=28.0 size=     256kB time=00:00:05.92 bitrate= 354.3kbits/s speed=1.21x    frame=  218 fps= 40 q=28.0 size=     256kB time=00:00:06.72 bitrate= 312.1kbits/s speed=1.24x    frame=  243 fps= 41 q=28.0 size=     512kB time=00:00:07.72 bitrate= 543.3kbits/s speed=1.29x    frame=  265 fps= 41 q=28.0 size=     512kB time=00:00:08.60 bitrate= 487.7kbits/s speed=1.32x    frame=  283 fps= 35 q=-1.0 Lsize=     823kB time=00:00:11.20 bitrate= 601.9kbits/s speed= 1.4x    
video:819kB audio:0kB subtitle:0kB other streams:0kB global headers:0kB muxing overhead: 0.505358%
[libx264 @ 0x55d8050fae80] frame I:2     Avg QP:17.04  size: 37802
[libx264 @ 0x55d8050fae80] frame P:74    Avg QP:25.31  size:  8153
[libx264 @ 0x55d8050fae80] frame B:207   Avg QP:18.65  size:   767
[libx264 @ 0x55d8050fae80] consecutive B-frames:  0.7%  4.2%  3.2% 91.9%
[libx264 @ 0x55d8050fae80] mb I  I16..4: 30.4% 43.5% 26.1%
[libx264 @ 0x55d8050fae80] mb P  I16..4:  0.3%  1.5%  0.9%  P16..4:  5.6%  6.9%  4.5%  0.0%  0.0%    skip:80.3%
[libx264 @ 0x55d8050fae80] mb B  I16..4:  0.1%  0.1%  0.0%  B16..8:  6.7%  0.9%  0.4%  direct: 0.3%  skip:91.6%  L0:44.6% L1:47.3% BI: 8.1%
[libx264 @ 0x55d8050fae80] 8x8 transform intra:48.8% inter:37.7%
[libx264 @ 0x55d8050fae80] coded y,uvDC,uvAC intra: 40.9% 43.5% 35.2% inter: 2.7% 2.2% 0.7%
[libx264 @ 0x55d8050fae80] i16 v,h,dc,p: 68% 20%  9%  3%
[libx264 @ 0x55d8050fae80] i8 v,h,dc,ddl,ddr,vr,hd,vl,hu: 29% 10% 31%  5%  5%  4%  6%  4%  6%
[libx264 @ 0x55d8050fae80] i4 v,h,dc,ddl,ddr,vr,hd,vl,hu: 29% 18% 17%  5%  6%  5%  9%  4%  7%
[libx264 @ 0x55d8050fae80] i8c dc,h,v,p: 68% 15% 13%  5%
[libx264 @ 0x55d8050fae80] Weighted P-Frames: Y:0.0% UV:0.0%
[libx264 @ 0x55d8050fae80] ref P L0: 69.5% 15.2% 10.1%  5.3%
[libx264 @ 0x55d8050fae80] ref B L0: 86.3% 11.0%  2.7%
[libx264 @ 0x55d8050fae80] ref B L1: 98.4%  1.6%
[libx264 @ 0x55d8050fae80] kb/s:592.03
